<svg width="25" height="21" viewBox="0 0 25 21" fill="none" xmlns="http://www.w3.org/2000/svg">
<path d="M0 1.75C0 0.820312 0.765625 0 1.75 0H14.75C15.6797 0 16.5 0.820312 16.5 1.75C16.5 2.73438 15.6797 3.5 14.75 3.5H1.75C0.765625 3.5 0 2.73438 0 1.75ZM0 10.5C0 9.57031 0.765625 8.75 1.75 8.75H22.75C23.6797 8.75 24.5 9.57031 24.5 10.5C24.5 11.4844 23.6797 12.25 22.75 12.25H1.75C0.765625 12.25 0 11.4844 0 10.5ZM22.75 21H1.75C0.765625 21 0 20.2344 0 19.25C0 18.3203 0.765625 17.5 1.75 17.5H22.75C23.6797 17.5 24.5 18.3203 24.5 19.25C24.5 20.2344 23.6797 21 22.75 21Z" fill="#F5F5F5"/>
</svg>
