<svg width="941" height="101" viewBox="0 0 941 101" fill="none" xmlns="http://www.w3.org/2000/svg">
<path d="M940.5 50.5C940.5 52.0741 939.759 53.6799 938.208 55.3197C936.654 56.9617 934.317 58.6042 931.209 60.2347C924.993 63.495 915.794 66.6547 903.903 69.6722C880.128 75.7053 845.704 81.1433 803.14 85.7117C718.019 94.848 600.413 100.5 470.5 100.5C340.587 100.5 222.981 94.848 137.86 85.7117C95.2959 81.1433 60.8717 75.7053 37.0972 69.6722C25.2059 66.6547 16.0069 63.495 9.79114 60.2347C6.68257 58.6042 4.34594 56.9617 2.79233 55.3197C1.24076 53.6799 0.5 52.0741 0.5 50.5C0.5 48.9259 1.24076 47.3201 2.79233 45.6803C4.34594 44.0383 6.68257 42.3958 9.79114 40.7653C16.0069 37.505 25.2059 34.3453 37.0972 31.3278C60.8717 25.2947 95.2959 19.8567 137.86 15.2883C222.981 6.15199 340.587 0.5 470.5 0.5C600.413 0.5 718.019 6.15199 803.14 15.2883C845.704 19.8567 880.128 25.2947 903.903 31.3278C915.794 34.3453 924.993 37.505 931.209 40.7653C934.317 42.3958 936.654 44.0383 938.208 45.6803C939.759 47.3201 940.5 48.9259 940.5 50.5Z" stroke="#07DDDA"/>
</svg>
