<svg width="1355" height="100%" viewBox="0 0 1355 280" fill="none" xmlns="http://www.w3.org/2000/svg">
    <path opacity="0.3" fill-rule="evenodd" clip-rule="evenodd" d="M1355 104.37C1149.94 36.6486 930.752 0 703 0C452.13 0 211.647 44.4663 -11 125.947V127.012C211.636 45.4906 452.122 1 703 1C930.758 1 1149.95 37.6684 1355 105.424V104.37Z" fill="white"/>
    <path opacity="0.5" fill-rule="evenodd" clip-rule="evenodd" d="M1355 176.87C1149.94 109.149 930.752 72.5 703 72.5C452.13 72.5 211.647 116.966 -11 198.447V199.512C211.636 117.991 452.122 73.5 703 73.5C930.758 73.5 1149.95 110.168 1355 177.924V176.87Z" fill="white"/>
    <path opacity="0.7" fill-rule="evenodd" clip-rule="evenodd" d="M1355 230.87C1149.94 163.149 930.752 126.5 703 126.5C452.13 126.5 211.647 170.966 -11 252.447V253.512C211.636 171.991 452.122 127.5 703 127.5C930.758 127.5 1149.95 164.168 1355 231.924V230.87Z" fill="white"/>
</svg>
