<svg width="1366" height="254" viewBox="0 0 1366 254" fill="none" xmlns="http://www.w3.org/2000/svg">
<path fill-rule="evenodd" clip-rule="evenodd" d="M1366 104.897V254H0V126.48C222.641 44.9784 463.126 0.5 714 0.5C941.755 0.5 1160.95 37.1585 1366 104.897Z" fill="#010101"/>
<path opacity="0.3" fill-rule="evenodd" clip-rule="evenodd" d="M1366 104.37C1160.94 36.6486 941.752 0 714 0C463.13 0 222.647 44.4663 0 125.947V127.012C222.636 45.4906 463.122 1 714 1C941.758 1 1160.95 37.6684 1366 105.424V104.37Z" fill="#FF3366"/>
<path opacity="0.5" fill-rule="evenodd" clip-rule="evenodd" d="M1366 176.87C1160.94 109.149 941.752 72.5 714 72.5C463.13 72.5 222.647 116.966 0 198.447V199.512C222.636 117.991 463.122 73.5 714 73.5C941.758 73.5 1160.95 110.168 1366 177.924V176.87Z" fill="white"/>
<path opacity="0.7" fill-rule="evenodd" clip-rule="evenodd" d="M1366 230.87C1160.94 163.149 941.752 126.5 714 126.5C463.13 126.5 222.647 170.966 0 252.447V253.512C222.636 171.991 463.122 127.5 714 127.5C941.758 127.5 1160.95 164.168 1366 231.924V230.87Z" fill="white"/>
</svg>
